<?xml version="1.0"?>
<svg xmlns="http://www.w3.org/2000/svg" id="outline" height="512px" viewBox="0 0 512 512" width="512px" class=""><g><path d="m32 96h48a16.01582 16.01582 0 0 0 16-16v-48h272v160h16v-160a16.01582 16.01582 0 0 0 -16-16h-276.6875a15.89068 15.89068 0 0 0 -11.3125 4.6875l-59.3125 59.3125a15.89068 15.89068 0 0 0 -4.6875 11.3125v388.6875a16.01582 16.01582 0 0 0 16 16h232v-16h-232zm11.3125-16 36.6875-36.6875v36.6875z" data-original="#000000" class="active-path" data-old_color="#000000" fill="#545454"/><path d="m144 56h64v16h-64z" data-original="#000000" class="active-path" data-old_color="#000000" fill="#545454"/><path d="m224 56h32v16h-32z" data-original="#000000" class="active-path" data-old_color="#000000" fill="#545454"/><path d="m120 88h64v16h-64z" data-original="#000000" class="active-path" data-old_color="#000000" fill="#545454"/><path d="m200 88h24v16h-24z" data-original="#000000" class="active-path" data-old_color="#000000" fill="#545454"/><path d="m240 88h40v16h-40z" data-original="#000000" class="active-path" data-old_color="#000000" fill="#545454"/><path d="m344 144v-16h-288v16h128v80h-128v16h128v152h-128v16h128v32h-128v16h200v-16h-56v-32h56v-16h-56v-152h56v-16h-56v-32h144v-16h-144v-32z" data-original="#000000" class="active-path" data-old_color="#000000" fill="#545454"/><path d="m472 224h-152a24.02624 24.02624 0 0 0 -24 24v224a24.02624 24.02624 0 0 0 24 24h152a24.02624 24.02624 0 0 0 24-24v-224a24.02624 24.02624 0 0 0 -24-24zm8 248a8.01042 8.01042 0 0 1 -8 8h-152a8.01042 8.01042 0 0 1 -8-8v-224a8.01042 8.01042 0 0 1 8-8h152a8.01042 8.01042 0 0 1 8 8z" data-original="#000000" class="active-path" data-old_color="#000000" fill="#545454"/><path d="m448 256h-104a16.01582 16.01582 0 0 0 -16 16v24a16.01582 16.01582 0 0 0 16 16h104a16.01582 16.01582 0 0 0 16-16v-24a16.01582 16.01582 0 0 0 -16-16zm-104 40v-24h104l.01172 24z" data-original="#000000" class="active-path" data-old_color="#000000" fill="#545454"/><path d="m448 328h-104a16.01582 16.01582 0 0 0 -16 16v104a16.01582 16.01582 0 0 0 16 16h104a16.01582 16.01582 0 0 0 16-16v-104a16.01582 16.01582 0 0 0 -16-16zm-64 16h24v24h-24zm24 64h-24v-24h24zm-64-64h24v24h-24zm0 40h24v24h-24zm24 64h-24v-24h24zm40 0h-24v-24h24zm40.01172 0h-24.01172v-24h24.00391zm-.01172-40h-24v-24h24zm-24-40v-24h24v24z" data-original="#000000" class="active-path" data-old_color="#000000" fill="#545454"/></g> </svg>
